<svg width="147" height="135" viewBox="0 0 147 135" fill="none" xmlns="http://www.w3.org/2000/svg">
<path d="M80.3637 50.8642C78.5644 38.1764 93.4078 18.7886 99.9654 16.9131C101.62 23.5299 92.2513 46.0785 80.3637 50.8642Z" fill="#F26A8D"/>
<path d="M86.6776 57.1782C96.5946 40.6634 133.477 23.6852 144.037 24.0617C139.083 33.3956 105.938 56.8472 86.6776 57.1782Z" fill="#F26A8D"/>
<path d="M71.7387 48.5532C63.3378 36.1274 66.6982 6.30547 71.7387 0C76.7792 6.30547 80.1395 36.1274 71.7387 48.5532Z" fill="#F26A8D"/>
<path d="M88.9887 65.8032C98.0175 58.127 119.687 61.1975 123.954 65.8032C119.687 70.4089 98.0175 73.4793 88.9887 65.8032Z" fill="#F26A8D"/>
<path d="M86.6776 74.4282C104.426 74.269 134.406 95.7402 138.652 104.435C128.998 105.106 95.414 89.8784 86.6776 74.4282Z" fill="#F49CBB"/>
<path d="M80.3637 80.7421C94.2392 87.7322 106.877 116.439 105.771 124.75C98.0211 121.551 79.4795 96.2537 80.3637 80.7421Z" fill="#F49CBB"/>
<path d="M71.7386 83.0531C79.3731 91.8868 76.3193 113.088 71.7386 117.238C67.1579 113.088 64.1041 91.8868 71.7386 83.0531Z" fill="#F49CBB"/>
<path d="M63.1137 80.7421C63.394 98.1168 42.4124 127.314 33.8752 131.385C33.132 121.956 47.9266 89.1866 63.1137 80.7421Z" fill="#F49CBB"/>
<path d="M56.7995 74.4281C53.177 85.267 33.8772 92.9108 28.1543 90.9665C29.3319 85.0382 45.6015 72.146 56.7995 74.4281Z" fill="#F49CBB"/>
<path d="M63.1135 50.8643C51.7823 46.6956 43.3287 25.8706 45.137 19.728C51.3607 21.2333 65.169 38.9668 63.1135 50.8643Z" fill="#F26A8D"/>
<path d="M54.4885 65.8031C40.5789 74.5205 7.19578 71.0336 0 65.8031C7.19578 60.5727 40.5789 57.0858 54.4885 65.8031Z" fill="#F49CBB"/>
<path d="M56.7996 57.1782C45.1763 59.3225 28.0165 45.8733 26.6397 39.7653C32.6178 37.9037 52.845 46.0399 56.7996 57.1782Z" fill="#F49CBB"/>
<path d="M71.7386 81.9032C80.6303 81.9032 87.8386 74.695 87.8386 65.8032C87.8386 56.9114 80.6303 49.7032 71.7386 49.7032C62.8468 49.7032 55.6385 56.9114 55.6385 65.8032C55.6385 74.695 62.8468 81.9032 71.7386 81.9032Z" stroke="white" stroke-width="2.5"/>
<path d="M71.7385 51.7156L73.9005 60.5936L81.6975 55.8441L76.948 63.6411L85.826 65.8031L76.948 67.9651L81.6975 75.7621L73.9005 71.0126L71.7385 79.8906L69.5765 71.0126L61.7795 75.7621L66.529 67.9651L57.651 65.8031L66.529 63.6411L61.7795 55.8441L69.5765 60.5936L71.7385 51.7156Z" fill="#CBEEF3"/>
</svg>
